# xmcd
# 
# Track frame offsets:
#     182
#     13322
#     27110
#     45535
#     61675
#     85692
#     101515
#     113362
#     131025
#     148212
#     158825
#     177755
#     189735
#     203997
# 
# Disc length: 2941
# 
# Revision: 8
# Processed by: cddbd v1.5.2PL0 Copyright (c) Steve Scherf et al.
# Submitted via: fre:ac v1.0.27
# 
DISCID=b60b7b0e
DTITLE=Nanci Griffith - Blue Roses From The Moons
DYEAR=1997
DGENRE=American Folk
TTITLE0=Everything's Comin' Up Roses
TTITLE1=Two For The Road
TTITLE2=Wouldn't That Be Fine
TTITLE3=Battlefield
TTITLE4=Saint Teresa Of Avila
TTITLE5=Gulf Coast Highway
TTITLE6=I Fought The Law
TTITLE7=Not My Way Home
TTITLE8=Is This All There Is ?
TTITLE9=Maybe Tomorrow
TTITLE10=Waiting For Love
TTITLE11=I'll Move Along
TTITLE12=Morning Train
TTITLE13=She Ain't Goin' Nowhere
EXTD=
EXTT0=
EXTT1=
EXTT2=
EXTT3=
EXTT4=
EXTT5=Duet with Darius Rucker
EXTT6=Duet with Sonny Curtis
EXTT7=
EXTT8=
EXTT9=
EXTT10=
EXTT11=
EXTT12=
EXTT13=
PLAYORDER=
